<svg width="214" height="214" viewBox="0 0 214 214" fill="none" xmlns="http://www.w3.org/2000/svg">
<path d="M107.995 2.84403L112.734 52.2289C113.03 55.313 117.237 55.9793 118.472 53.1377L138.239 7.63421C138.722 6.52293 140.395 7.06677 140.133 8.2494L129.379 56.6815C128.707 59.706 132.503 61.64 134.555 59.3189L167.416 22.1509C168.218 21.2433 169.642 22.2774 169.027 23.3211L143.833 66.0596C142.259 68.7286 145.271 71.7408 147.94 70.1674L190.679 44.9734C191.723 44.3581 192.757 45.7816 191.849 46.584L154.681 79.4453C152.36 81.4974 154.294 85.293 157.319 84.6215L205.751 73.8673C206.933 73.6047 207.477 75.278 206.366 75.7607L160.862 95.5282C158.021 96.7626 158.687 100.97 161.771 101.266L211.156 106.005C212.362 106.12 212.362 107.88 211.156 107.995L161.771 112.734C158.687 113.03 158.021 117.237 160.862 118.472L206.366 138.239C207.477 138.722 206.933 140.395 205.751 140.133L157.319 129.379C154.294 128.707 152.36 132.503 154.681 134.555L191.849 167.416C192.757 168.218 191.723 169.642 190.679 169.027L147.94 143.833C145.271 142.259 142.259 145.271 143.833 147.94L169.027 190.679C169.642 191.723 168.218 192.757 167.416 191.849L134.555 154.681C132.503 152.36 128.707 154.294 129.379 157.319L140.133 205.751C140.395 206.933 138.722 207.477 138.239 206.366L118.472 160.862C117.237 158.021 113.03 158.687 112.734 161.771L107.995 211.156C107.88 212.362 106.12 212.362 106.005 211.156L101.266 161.771C100.97 158.687 96.7626 158.021 95.5281 160.862L75.7607 206.366C75.278 207.477 73.6047 206.933 73.8673 205.751L84.6215 157.319C85.293 154.294 81.4974 152.36 79.4452 154.681L46.584 191.849C45.7815 192.757 44.3581 191.723 44.9733 190.679L70.1674 147.94C71.7408 145.271 68.7286 142.259 66.0596 143.833L23.3211 169.027C22.2775 169.642 21.2433 168.219 22.1509 167.416L59.3189 134.555C61.64 132.503 59.706 128.707 56.6815 129.379L8.24938 140.133C7.06673 140.395 6.52293 138.722 7.63419 138.239L53.1377 118.472C55.9793 117.237 55.3129 113.03 52.2289 112.734L2.84401 107.995C1.63812 107.88 1.63796 106.12 2.84403 106.005L52.2289 101.266C55.313 100.97 55.9793 96.7626 53.1377 95.5281L7.63416 75.7607C6.52304 75.278 7.06659 73.6047 8.24939 73.8673L56.6815 84.6215C59.706 85.293 61.64 81.4974 59.3189 79.4452L22.1509 46.584C21.2434 45.7815 22.2774 44.3581 23.3212 44.9733L66.0596 70.1675C68.7286 71.7408 71.7408 68.7286 70.1674 66.0596L44.9733 23.3211C44.3581 22.2775 45.7815 21.2433 46.584 22.151L79.4453 59.3189C81.4974 61.64 85.293 59.706 84.6215 56.6815L73.8673 8.24937C73.6047 7.06672 75.278 6.52292 75.7607 7.63418L95.5282 53.1377C96.7626 55.9793 100.97 55.3129 101.266 52.2289L106.005 2.84401C106.12 1.63812 107.88 1.63795 107.995 2.84403Z" stroke="#B2DC5A" stroke-width="2"/>
</svg>
